<svg width="445" height="65" viewBox="0 0 445 65" fill="none" xmlns="http://www.w3.org/2000/svg">
<path d="M100.141 56H98.4531V17.1875H100.141V56ZM96.7656 56H95.0781V17.1875H96.7656V56ZM93.3906 56H91.7031V17.1875H93.3906V56ZM103.516 47.5625H121.469V49.25H103.516V50.9375H121.469V52.625H103.516V54.3125H121.469V56H101.828V17.1875H121.469V18.875H103.516V20.5625H121.469V22.25H103.516V23.9375H121.469V25.625H103.516V32.375H112.727V34.0625H103.516V35.75H112.727V37.4375H103.516V39.125H112.727V40.8125H103.516V47.5625ZM147.602 44.6094L148.281 42.9219H154.047L154.727 44.6094H147.602ZM146.289 47.9844L146.945 46.2969H155.359L156.086 47.9844H146.289ZM144.977 51.3594L145.633 49.6719H156.695L157.398 51.3594H144.977ZM131.266 56H129.438L144.789 17.1875H146.617L161.945 56H160.141L145.703 19.4609L131.266 56ZM145.914 23.4688L146.875 25.625L134.875 56H133.07L145.914 23.4688ZM147.789 27.9219L148.68 30.2422L138.531 56H136.703L147.789 27.9219ZM149.57 32.5625L150.461 34.9297L142.141 56H140.336L149.57 32.5625ZM172.844 56H171.016L155.688 17.1875H157.492L172.844 56ZM153.859 17.1875L169.211 56H167.406L152.055 17.1875H153.859ZM150.227 17.1875L165.578 56H163.75L148.422 17.1875H150.227ZM196.68 32.375H193.844C192.641 32.375 191.773 32.0703 191.242 31.4609C190.711 30.8359 190.445 30.0156 190.445 29C190.445 26.75 192.125 25.625 195.484 25.625C198.641 25.625 201.016 26.0938 202.609 27.0312L201.25 28.0625C200.156 27.5625 198.234 27.3125 195.484 27.3125C194.141 27.3125 193.234 27.4609 192.766 27.7578C192.312 28.0547 192.086 28.4688 192.086 29C192.086 29.5312 192.211 29.9453 192.461 30.2422C192.711 30.5391 193.172 30.6875 193.844 30.6875H196.75C198.859 30.6875 200.758 31.0469 202.445 31.7656C204.148 32.4844 205.547 33.4688 206.641 34.7188C207.734 35.9531 208.57 37.3828 209.148 39.0078C209.727 40.6172 210.016 42.3438 210.016 44.1875C210.016 45.6875 209.805 47.1094 209.383 48.4531C208.961 49.7969 208.32 51.0312 207.461 52.1562C206.617 53.2812 205.594 54.2578 204.391 55.0859C203.203 55.8984 201.781 56.5312 200.125 56.9844C198.484 57.4531 196.703 57.6875 194.781 57.6875C191.766 57.6875 188.938 57.2266 186.297 56.3047C183.672 55.3984 181.484 54.125 179.734 52.4844L181.094 51.4766C182.688 52.9141 184.68 54.0312 187.07 54.8281C189.477 55.6094 192.047 56 194.781 56C196.922 56 198.852 55.6953 200.57 55.0859C202.305 54.4609 203.727 53.6094 204.836 52.5312C205.961 51.4531 206.82 50.2031 207.414 48.7812C208.023 47.3594 208.328 45.8281 208.328 44.1875C208.328 42.0156 207.891 40.0547 207.016 38.3047C206.141 36.5391 204.805 35.1094 203.008 34.0156C201.227 32.9219 199.117 32.375 196.68 32.375ZM193.844 34.0625H196.516C199.688 34.0625 202.164 35.0312 203.945 36.9688C205.742 38.9062 206.641 41.3125 206.641 44.1875C206.641 47.1094 205.602 49.5312 203.523 51.4531C201.445 53.3594 198.531 54.3125 194.781 54.3125C192.281 54.3125 189.945 53.9688 187.773 53.2812C185.602 52.5938 183.797 51.625 182.359 50.375L183.672 49.3203C184.953 50.3672 186.562 51.1797 188.5 51.7578C190.453 52.3359 192.547 52.625 194.781 52.625C198.078 52.625 200.594 51.8359 202.328 50.2578C204.078 48.6797 204.953 46.6562 204.953 44.1875C204.953 41.75 204.219 39.7344 202.75 38.1406C201.297 36.5469 199.211 35.75 196.492 35.75H193.844C191.562 35.75 189.852 35.125 188.711 33.875C187.57 32.625 187 31 187 29C187 27 187.703 25.375 189.109 24.125C190.531 22.875 192.656 22.25 195.484 22.25C197.469 22.25 199.312 22.4844 201.016 22.9531C202.719 23.4062 204.125 24.0625 205.234 24.9219L203.898 25.9531C201.945 24.6094 199.141 23.9375 195.484 23.9375C193.125 23.9375 191.398 24.4062 190.305 25.3438C189.227 26.2656 188.688 27.4844 188.688 29C188.688 30.5312 189.086 31.7578 189.883 32.6797C190.695 33.6016 192.016 34.0625 193.844 34.0625ZM193.844 37.4375H196.422C198.703 37.4375 200.414 38.0703 201.555 39.3359C202.695 40.6016 203.266 42.2188 203.266 44.1875C203.266 46.1875 202.555 47.8125 201.133 49.0625C199.727 50.3125 197.609 50.9375 194.781 50.9375C192.797 50.9375 190.945 50.7109 189.227 50.2578C187.523 49.7891 186.117 49.125 185.008 48.2656L186.344 47.2344C188.297 48.5781 191.109 49.25 194.781 49.25C197.141 49.25 198.859 48.7891 199.938 47.8672C201.031 46.9297 201.578 45.7031 201.578 44.1875C201.578 42.6719 201.172 41.4531 200.359 40.5312C199.547 39.5938 198.227 39.125 196.398 39.125H193.844C190.641 39.125 188.133 38.1719 186.32 36.2656C184.523 34.3438 183.625 31.9219 183.625 29C183.625 26.0781 184.664 23.6641 186.742 21.7578C188.82 19.8359 191.734 18.875 195.484 18.875C197.984 18.875 200.312 19.2188 202.469 19.9062C204.641 20.5938 206.445 21.5625 207.883 22.8125L206.57 23.8672C205.289 22.8203 203.68 22.0078 201.742 21.4297C199.805 20.8516 197.719 20.5625 195.484 20.5625C192.188 20.5625 189.664 21.3516 187.914 22.9297C186.18 24.5078 185.312 26.5312 185.312 29C185.312 31.4531 186.047 33.4766 187.516 35.0703C188.984 36.6484 191.094 37.4375 193.844 37.4375ZM193.844 40.8125H196.422C197.625 40.8125 198.492 41.125 199.023 41.75C199.555 42.375 199.82 43.1875 199.82 44.1875C199.82 46.4375 198.141 47.5625 194.781 47.5625C191.609 47.5625 189.227 47.0938 187.633 46.1562L188.992 45.125C190.086 45.625 192.016 45.875 194.781 45.875C196.125 45.875 197.023 45.7266 197.477 45.4297C197.945 45.1328 198.18 44.7188 198.18 44.1875C198.18 43.6719 198.047 43.2656 197.781 42.9688C197.531 42.6562 197.062 42.5 196.375 42.5H193.844C191.688 42.5 189.734 42.1484 187.984 41.4453C186.25 40.7422 184.82 39.7734 183.695 38.5391C182.586 37.3047 181.734 35.875 181.141 34.25C180.547 32.625 180.25 30.875 180.25 29C180.25 27.5 180.461 26.0781 180.883 24.7344C181.305 23.3906 181.938 22.1562 182.781 21.0312C183.641 19.9062 184.664 18.9375 185.852 18.125C187.055 17.2969 188.477 16.6562 190.117 16.2031C191.773 15.7344 193.562 15.5 195.484 15.5C198.5 15.5 201.32 15.9609 203.945 16.8828C206.57 17.7891 208.758 19.0625 210.508 20.7031L209.148 21.7109C207.555 20.2734 205.562 19.1641 203.172 18.3828C200.781 17.5859 198.219 17.1875 195.484 17.1875C193.344 17.1875 191.406 17.5 189.672 18.125C187.953 18.7344 186.531 19.5781 185.406 20.6562C184.297 21.7344 183.438 22.9844 182.828 24.4062C182.234 25.8281 181.938 27.3594 181.938 29C181.938 31.2031 182.383 33.1875 183.273 34.9531C184.164 36.7188 185.523 38.1406 187.352 39.2188C189.18 40.2812 191.344 40.8125 193.844 40.8125ZM227.406 56H225.719V17.1875H227.406V56ZM224.031 56H222.344V17.1875H224.031V56ZM220.656 56H218.969V17.1875H220.656V56ZM230.781 47.5625H248.734V49.25H230.781V50.9375H248.734V52.625H230.781V54.3125H248.734V56H229.094V17.1875H248.734V18.875H230.781V20.5625H248.734V22.25H230.781V23.9375H248.734V25.625H230.781V32.375H239.992V34.0625H230.781V35.75H239.992V37.4375H230.781V39.125H239.992V40.8125H230.781V47.5625ZM291.25 41.8438L292.938 38.6562V56H291.25V41.8438ZM294.625 35.375L296.312 32.1875V56H294.625V35.375ZM298 29L299.688 25.7891V56H298V29ZM286.68 41.0469L285.719 39.2891L297.344 17.1875H299.242L286.68 41.0469ZM284.734 37.3672L283.75 35.5859L293.5 17.1875H295.422L284.734 37.3672ZM273.438 38.8438L275.125 42.0312V56H273.438V38.8438ZM270.062 32.4219L271.75 35.6094V56H270.062V32.4219ZM266.688 26L268.375 29.2109V56H266.688V26ZM280.328 45.875H278.43L265 20.3984V56H263.312V17.1875H265.211L280.328 45.875ZM284.148 45.875H282.227L267.133 17.1875H269.055L284.148 45.875ZM301.375 20.3984L287.945 45.875H286.023L270.953 17.1875H272.852L287.008 44.0938L301.141 17.1875H303.062V56H301.375V20.3984ZM321.156 56H319.469V17.1875H321.156V56ZM317.781 56H316.094V17.1875H317.781V56ZM314.406 56H312.719V17.1875H314.406V56ZM324.531 47.5625H342.484V49.25H324.531V50.9375H342.484V52.625H324.531V54.3125H342.484V56H322.844V17.1875H342.484V18.875H324.531V20.5625H342.484V22.25H324.531V23.9375H342.484V25.625H324.531V32.375H333.742V34.0625H324.531V35.75H333.742V37.4375H324.531V39.125H333.742V40.8125H324.531V47.5625ZM379.422 37.3203L377.734 34.5312V17.1875H379.422V37.3203ZM382.797 42.8516L381.109 40.0156V17.1875H382.797V42.8516ZM386.172 48.4531L384.484 45.5938V17.1875H386.172V48.4531ZM361.984 35.8672L363.672 38.6562V56H361.984V35.8672ZM358.609 30.3359L360.297 33.1719V56H358.609V30.3359ZM355.234 24.7344L356.922 27.5938V56H355.234V24.7344ZM355.82 17.1875H357.789L381.648 56H379.68L355.82 17.1875ZM359.805 17.1875H361.797L385.633 56H383.617L359.805 17.1875ZM363.766 17.1875H365.734L387.859 53.2578V17.1875H389.547V56C389.547 56 388.883 56 387.555 56L363.766 17.1875ZM353.547 19.9297V56H351.859V17.1875C351.859 17.1875 352.531 17.1875 353.875 17.1875L377.664 56H375.719L353.547 19.9297ZM426.531 38.9375V17.1875H428.219V38.9375C428.219 41.3125 427.281 43.3438 425.406 45.0312C423.531 46.7188 421.281 47.5625 418.656 47.5625C416.031 47.5625 413.781 46.7188 411.906 45.0312C410.031 43.3438 409.094 41.3125 409.094 38.9375V17.1875H410.781V38.9375C410.781 40.8438 411.547 42.4766 413.078 43.8359C414.625 45.1953 416.484 45.875 418.656 45.875C420.828 45.875 422.68 45.1953 424.211 43.8359C425.758 42.4766 426.531 40.8438 426.531 38.9375ZM429.906 38.9375V17.1875H431.594V38.9375C431.594 40.5625 431.25 42.1172 430.562 43.6016C429.875 45.0703 428.953 46.3438 427.797 47.4219C426.641 48.5 425.266 49.3594 423.672 50C422.078 50.625 420.406 50.9375 418.656 50.9375C416.906 50.9375 415.234 50.625 413.641 50C412.047 49.3594 410.672 48.5 409.516 47.4219C408.359 46.3438 407.438 45.0703 406.75 43.6016C406.062 42.1172 405.719 40.5625 405.719 38.9375V17.1875H407.406V38.9375C407.406 40.7969 407.906 42.5234 408.906 44.1172C409.922 45.6953 411.289 46.9453 413.008 47.8672C414.742 48.7891 416.625 49.25 418.656 49.25C420.688 49.25 422.562 48.7891 424.281 47.8672C426.016 46.9453 427.383 45.6953 428.383 44.1172C429.398 42.5234 429.906 40.7969 429.906 38.9375ZM433.281 38.9375V17.1875H434.969V38.9375C434.969 41.0156 434.531 43.0078 433.656 44.9141C432.797 46.8047 431.641 48.4375 430.188 49.8125C428.734 51.1875 427 52.2812 424.984 53.0938C422.969 53.9062 420.859 54.3125 418.656 54.3125C416.453 54.3125 414.344 53.9062 412.328 53.0938C410.312 52.2812 408.578 51.1875 407.125 49.8125C405.672 48.4375 404.508 46.8047 403.633 44.9141C402.773 43.0078 402.344 41.0156 402.344 38.9375V17.1875H404.031V38.9375C404.031 41.4062 404.688 43.6953 406 45.8047C407.312 47.8984 409.086 49.5625 411.32 50.7969C413.57 52.0156 416.016 52.625 418.656 52.625C421.297 52.625 423.734 52.0156 425.969 50.7969C428.219 49.5625 430 47.8984 431.312 45.8047C432.625 43.6953 433.281 41.4062 433.281 38.9375ZM436.656 38.9375V17.1875H438.344V38.9375C438.344 42.3125 437.461 45.4453 435.695 48.3359C433.93 51.2109 431.531 53.4922 428.5 55.1797C425.484 56.8516 422.203 57.6875 418.656 57.6875C415.109 57.6875 411.82 56.8516 408.789 55.1797C405.773 53.4922 403.383 51.2109 401.617 48.3359C399.852 45.4453 398.969 42.3125 398.969 38.9375V17.1875H400.656V38.9375C400.656 41.2344 401.133 43.4375 402.086 45.5469C403.039 47.6562 404.32 49.4766 405.93 51.0078C407.539 52.5234 409.453 53.7344 411.672 54.6406C413.906 55.5469 416.234 56 418.656 56C421.078 56 423.398 55.5469 425.617 54.6406C427.852 53.7344 429.773 52.5234 431.383 51.0078C432.992 49.4766 434.273 47.6562 435.227 45.5469C436.18 43.4375 436.656 41.2344 436.656 38.9375Z" fill="black"/>
<path d="M0.0625 12.918V29.5117C0.0625 31.3555 5.4375 33.1992 5.4375 33.1992C5.4375 46.1055 2.75 53.4805 2.75 57.168C2.75 59.0117 2.75 60.8555 5.4375 62.6992C8.125 64.543 8.125 64.543 10.8125 62.6992C13.5 60.8555 13.5 59.0117 13.5 57.168C13.5 53.4805 10.8125 46.1055 10.8125 33.1992C10.8125 33.1992 16.1875 31.3555 16.1875 29.5117V12.918H13.1641V23.9805H9.63672V12.918H6.61328V23.9805H3.08594V12.918H0.0625ZM33.9922 12.918C31.3047 12.918 31.3047 14.7617 31.3047 14.7617V46.1055H31.3719C30.5992 51.3832 29.625 54.9555 29.625 57.168C29.625 59.0117 29.625 60.8555 32.3125 62.6992C35 64.543 35 64.543 37.6875 62.6992C40.375 60.8555 40.375 59.0117 40.375 57.168C40.375 54.6213 39.0984 50.3115 38.2922 43.6279C40.3582 40.1594 42.0547 35.7574 42.0547 31.3555C42.0547 25.8242 37.7211 15.4992 33.9922 12.918ZM61.875 12.918C59.0239 12.918 56.2896 14.0835 54.2736 16.1581C52.2576 18.2327 51.125 21.0465 51.125 23.9805C51.1278 26.4277 51.9191 28.8049 53.3749 30.7399C54.8308 32.675 56.8691 34.0586 59.1707 34.6742C58.9859 46.6701 56.5 53.6188 56.5 57.168C56.5 59.0117 56.5 60.8555 59.1875 62.6992C61.875 64.543 61.875 64.543 64.5625 62.6992C67.25 60.8555 67.25 59.0117 67.25 57.168C67.25 53.6188 64.7641 46.6701 64.5793 34.6857C66.8828 34.0696 68.9224 32.6843 70.3785 30.7469C71.8346 28.8095 72.6247 26.4297 72.625 23.9805C72.625 21.0465 71.4924 18.2327 69.4764 16.1581C67.4604 14.0835 64.7261 12.918 61.875 12.918Z" fill="black"/>
</svg>
